<svg xmlns="http://www.w3.org/2000/svg" xmlns:xlink="http://www.w3.org/1999/xlink" version="1.1" width="256" height="256" viewBox="0 0 256 256" xml:space="preserve">

<defs>
</defs>
<g style="stroke: none; stroke-width: 0; stroke-dasharray: none; stroke-linecap: butt; stroke-linejoin: miter; stroke-miterlimit: 10; fill: none; fill-rule: nonzero; opacity: 1;" transform="translate(1.4065934065934016 1.4065934065934016) scale(2.81 2.81)" >
	<path d="M 9.494 73.65 c -4.837 0 -8.928 -2.96 -9.441 -7.072 c -0.564 -4.53 3.419 -8.77 8.881 -9.451 c 5.466 -0.681 10.364 2.451 10.93 6.979 c 0 0.001 0 0.001 0 0.001 c 0.564 4.529 -3.42 8.769 -8.881 9.45 C 10.48 73.62 9.983 73.65 9.494 73.65 z M 10.415 61.034 c -0.324 0 -0.654 0.021 -0.987 0.062 c -3.217 0.401 -5.693 2.686 -5.406 4.987 c 0.287 2.3 3.239 3.901 6.465 3.506 c 3.217 -0.401 5.692 -2.686 5.406 -4.986 l 0 0 C 15.636 62.539 13.229 61.034 10.415 61.034 z" style="stroke: none; stroke-width: 1; stroke-dasharray: none; stroke-linecap: butt; stroke-linejoin: miter; stroke-miterlimit: 10; fill: rgb(0,0,0); fill-rule: nonzero; opacity: 1;" transform=" matrix(1 0 0 1 0 0) " stroke-linecap="round" />
	<path d="M 17.916 66.951 c -1.104 0 -2 -0.896 -2 -2 V 28.219 c 0 -1.104 0.896 -2 2 -2 s 2 0.896 2 2 v 36.731 C 19.916 66.056 19.02 66.951 17.916 66.951 z" style="stroke: none; stroke-width: 1; stroke-dasharray: none; stroke-linecap: butt; stroke-linejoin: miter; stroke-miterlimit: 10; fill: rgb(0,0,0); fill-rule: nonzero; opacity: 1;" transform=" matrix(1 0 0 1 0 0) " stroke-linecap="round" />
	<path d="M 44.019 63.781 c -2.027 0 -3.972 -0.514 -5.597 -1.492 c -2.179 -1.314 -3.536 -3.297 -3.821 -5.583 c -0.285 -2.285 0.544 -4.541 2.334 -6.349 c 1.663 -1.681 3.988 -2.782 6.547 -3.101 c 5.456 -0.688 10.362 2.449 10.929 6.979 v 0.001 c 0.285 2.286 -0.544 4.541 -2.334 6.349 c -1.663 1.681 -3.988 2.782 -6.547 3.101 C 45.024 63.75 44.519 63.781 44.019 63.781 z M 44.965 51.163 c -0.325 0 -0.655 0.021 -0.988 0.062 c -1.673 0.209 -3.164 0.899 -4.199 1.945 c -0.909 0.918 -1.337 1.998 -1.207 3.041 s 0.811 1.984 1.917 2.651 c 1.26 0.759 2.875 1.063 4.548 0.854 s 3.164 -0.899 4.199 -1.945 c 0.909 -0.918 1.338 -1.998 1.208 -3.041 C 50.185 52.667 47.778 51.163 44.965 51.163 z" style="stroke: none; stroke-width: 1; stroke-dasharray: none; stroke-linecap: butt; stroke-linejoin: miter; stroke-miterlimit: 10; fill: rgb(0,0,0); fill-rule: nonzero; opacity: 1;" transform=" matrix(1 0 0 1 0 0) " stroke-linecap="round" />
	<path d="M 52.464 57.079 c -1.104 0 -2 -0.896 -2 -2 V 18.348 c 0 -1.104 0.896 -2 2 -2 s 2 0.896 2 2 v 36.731 C 54.464 56.184 53.568 57.079 52.464 57.079 z" style="stroke: none; stroke-width: 1; stroke-dasharray: none; stroke-linecap: butt; stroke-linejoin: miter; stroke-miterlimit: 10; fill: rgb(0,0,0); fill-rule: nonzero; opacity: 1;" transform=" matrix(1 0 0 1 0 0) " stroke-linecap="round" />
	<path d="M 17.916 40.09 c -0.43 0 -0.854 -0.139 -1.205 -0.403 c -0.501 -0.378 -0.795 -0.969 -0.795 -1.597 v -9.87 c 0 -0.893 0.592 -1.678 1.451 -1.923 l 34.548 -9.871 c 0.604 -0.174 1.254 -0.051 1.754 0.326 c 0.501 0.378 0.796 0.969 0.796 1.597 v 9.871 c 0 0.893 -0.592 1.678 -1.45 1.923 l -34.549 9.871 C 18.284 40.065 18.1 40.09 17.916 40.09 z M 19.916 29.728 v 5.71 l 30.548 -8.728 v -5.711 L 19.916 29.728 z M 52.464 28.219 h 0.01 H 52.464 z" style="stroke: none; stroke-width: 1; stroke-dasharray: none; stroke-linecap: butt; stroke-linejoin: miter; stroke-miterlimit: 10; fill: rgb(0,0,0); fill-rule: nonzero; opacity: 1;" transform=" matrix(1 0 0 1 0 0) " stroke-linecap="round" />
	<path d="M 68.35 73.651 c -2.079 0 -4.075 -0.526 -5.74 -1.53 c -2.231 -1.345 -3.62 -3.373 -3.911 -5.711 c -0.578 -4.638 3.506 -8.979 9.104 -9.677 c 2.621 -0.33 5.214 0.182 7.291 1.434 c 2.23 1.346 3.62 3.374 3.911 5.712 c 0.578 4.638 -3.506 8.978 -9.105 9.676 C 69.381 73.62 68.862 73.651 68.35 73.651 z M 69.36 60.636 c -0.351 0 -0.705 0.022 -1.063 0.066 c -3.352 0.418 -5.93 2.806 -5.63 5.214 c 0.137 1.095 0.85 2.082 2.007 2.779 c 1.312 0.79 2.988 1.104 4.731 0.891 c 3.352 -0.418 5.931 -2.805 5.631 -5.213 c -0.137 -1.095 -0.85 -2.082 -2.008 -2.78 C 71.986 60.965 70.712 60.636 69.36 60.636 z" style="stroke: none; stroke-width: 1; stroke-dasharray: none; stroke-linecap: butt; stroke-linejoin: miter; stroke-miterlimit: 10; fill: rgb(0,0,0); fill-rule: nonzero; opacity: 1;" transform=" matrix(1 0 0 1 0 0) " stroke-linecap="round" />
	<rect x="75.06" y="26.86" rx="0" ry="0" width="4" height="37.88" style="stroke: none; stroke-width: 1; stroke-dasharray: none; stroke-linecap: butt; stroke-linejoin: miter; stroke-miterlimit: 10; fill: rgb(0,0,0); fill-rule: nonzero; opacity: 1;" transform=" matrix(1 0 0 1 0 0) "/>
	<path d="M 87.482 50.756 c -0.707 0 -1.373 -0.376 -1.733 -1.004 c -3.769 -6.559 -7.237 -6.014 -8.38 -5.837 c -0.579 0.091 -1.167 -0.076 -1.61 -0.456 c -0.444 -0.38 -0.7 -0.936 -0.7 -1.52 V 26.856 c 0 -1.104 0.896 -2 2 -2 s 2 0.896 2 2 c 0 3.726 1.858 4.967 4.432 6.686 c 3.606 2.41 8.096 5.408 5.95 15.625 c -0.17 0.812 -0.824 1.435 -1.644 1.564 C 87.691 50.748 87.587 50.756 87.482 50.756 z M 79.059 39.859 c 2.511 0.179 4.819 1.344 6.909 3.484 c -0.305 -3.538 -2.32 -4.884 -4.699 -6.474 c -0.715 -0.478 -1.476 -0.985 -2.21 -1.577 V 39.859 z" style="stroke: none; stroke-width: 1; stroke-dasharray: none; stroke-linecap: butt; stroke-linejoin: miter; stroke-miterlimit: 10; fill: rgb(0,0,0); fill-rule: nonzero; opacity: 1;" transform=" matrix(1 0 0 1 0 0) " stroke-linecap="round" />
</g>
</svg>