<svg xmlns="http://www.w3.org/2000/svg" xmlns:xlink="http://www.w3.org/1999/xlink" version="1.1" width="256" height="256" viewBox="0 0 256 256" xml:space="preserve">

<defs>
</defs>
<g style="stroke: none; stroke-width: 0; stroke-dasharray: none; stroke-linecap: butt; stroke-linejoin: miter; stroke-miterlimit: 10; fill: none; fill-rule: nonzero; opacity: 1;" transform="translate(1.4065934065934016 1.4065934065934016) scale(2.81 2.81)" >
	<path d="M 16.344 90 c -3.048 0 -5.967 -0.769 -8.397 -2.233 c -3.186 -1.921 -5.169 -4.801 -5.581 -8.107 s 0.802 -6.584 3.42 -9.229 c 2.491 -2.517 5.987 -4.168 9.843 -4.648 c 3.856 -0.482 7.651 0.262 10.683 2.09 c 3.186 1.921 5.169 4.801 5.581 8.107 c 0.412 3.307 -0.802 6.585 -3.42 9.229 c -2.491 2.517 -5.987 4.168 -9.843 4.648 C 17.864 89.953 17.1 89.999 16.344 90 z M 17.924 69.638 c -0.593 0 -1.194 0.037 -1.799 0.112 c -2.97 0.37 -5.632 1.611 -7.495 3.494 c -1.736 1.754 -2.551 3.857 -2.293 5.921 c 0.257 2.063 1.563 3.901 3.677 5.176 c 2.268 1.367 5.151 1.915 8.123 1.547 c 2.971 -0.37 5.632 -1.611 7.495 -3.493 c 1.736 -1.755 2.551 -3.857 2.293 -5.922 l 0 0 c -0.257 -2.063 -1.563 -3.901 -3.677 -5.176 C 22.441 70.209 20.244 69.638 17.924 69.638 z" style="stroke: none; stroke-width: 1; stroke-dasharray: none; stroke-linecap: butt; stroke-linejoin: miter; stroke-miterlimit: 10; fill: rgb(0,0,0); fill-rule: nonzero; opacity: 1;" transform=" matrix(1 0 0 1 0 0) " stroke-linecap="round" />
	<path d="M 29.969 79.188 c -1.104 0 -2 -0.896 -2 -2 V 17.926 c 0 -1.104 0.895 -2 2 -2 c 1.104 0 2 0.895 2 2 v 59.262 C 31.969 78.293 31.074 79.188 29.969 79.188 z" style="stroke: none; stroke-width: 1; stroke-dasharray: none; stroke-linecap: butt; stroke-linejoin: miter; stroke-miterlimit: 10; fill: rgb(0,0,0); fill-rule: nonzero; opacity: 1;" transform=" matrix(1 0 0 1 0 0) " stroke-linecap="round" />
	<path d="M 72.113 74.073 c -7.191 0 -13.257 -4.321 -14.007 -10.339 c -0.827 -6.638 5.123 -12.863 13.264 -13.878 c 3.853 -0.481 7.65 0.262 10.683 2.09 c 3.186 1.921 5.169 4.801 5.58 8.107 c 0.413 3.307 -0.802 6.585 -3.419 9.229 c -2.491 2.517 -5.987 4.168 -9.844 4.648 C 73.61 74.026 72.855 74.073 72.113 74.073 z M 73.664 53.713 c -0.593 0 -1.194 0.037 -1.8 0.112 c -5.951 0.742 -10.343 4.966 -9.789 9.415 c 0.555 4.449 5.846 7.463 11.802 6.723 c 2.97 -0.37 5.632 -1.611 7.494 -3.493 c 1.736 -1.755 2.551 -3.857 2.294 -5.922 l 0 0 c -0.257 -2.063 -1.563 -3.901 -3.677 -5.176 C 78.181 54.283 75.984 53.713 73.664 53.713 z" style="stroke: none; stroke-width: 1; stroke-dasharray: none; stroke-linecap: butt; stroke-linejoin: miter; stroke-miterlimit: 10; fill: rgb(0,0,0); fill-rule: nonzero; opacity: 1;" transform=" matrix(1 0 0 1 0 0) " stroke-linecap="round" />
	<path d="M 85.709 63.262 c -1.104 0 -2 -0.895 -2 -2 V 2 c 0 -1.104 0.896 -2 2 -2 s 2 0.895 2 2 v 59.262 C 87.709 62.367 86.814 63.262 85.709 63.262 z" style="stroke: none; stroke-width: 1; stroke-dasharray: none; stroke-linecap: butt; stroke-linejoin: miter; stroke-miterlimit: 10; fill: rgb(0,0,0); fill-rule: nonzero; opacity: 1;" transform=" matrix(1 0 0 1 0 0) " stroke-linecap="round" />
	<path d="M 29.969 35.852 c -0.43 0 -0.854 -0.139 -1.205 -0.403 c -0.501 -0.378 -0.795 -0.969 -0.795 -1.597 V 17.926 c 0 -0.893 0.592 -1.678 1.451 -1.923 L 85.16 0.078 c 0.604 -0.173 1.254 -0.052 1.754 0.326 C 87.415 0.782 87.709 1.373 87.709 2 v 15.926 c 0 0.893 -0.592 1.678 -1.45 1.923 l -55.74 15.926 C 30.338 35.827 30.153 35.852 29.969 35.852 z M 31.969 19.435 v 11.766 l 51.74 -14.784 V 4.652 L 31.969 19.435 z M 85.709 17.926 h 0.01 H 85.709 z" style="stroke: none; stroke-width: 1; stroke-dasharray: none; stroke-linecap: butt; stroke-linejoin: miter; stroke-miterlimit: 10; fill: rgb(0,0,0); fill-rule: nonzero; opacity: 1;" transform=" matrix(1 0 0 1 0 0) " stroke-linecap="round" />
</g>
</svg>